<?xml version="1.0" encoding="iso-8859-1"?>
<!-- Generator: Adobe Illustrator 16.0.0, SVG Export Plug-In . SVG Version: 6.00 Build 0)  -->
<!DOCTYPE svg PUBLIC "-//W3C//DTD SVG 1.1//EN" "http://www.w3.org/Graphics/SVG/1.1/DTD/svg11.dtd">
<svg version="1.1" id="Capa_1" xmlns="http://www.w3.org/2000/svg" xmlns:xlink="http://www.w3.org/1999/xlink" x="0px" y="0px"
	 width="25px" height="25px" viewBox="0 0 588.52 588.52" style="enable-background:new 0 0 588.52 588.52;"
	 xml:space="preserve">
<g>
	<g>
		<g>
			<path d="M86.541,501.98c26.971,26.971,58.385,48.148,93.368,62.945c36.23,15.324,74.704,23.094,114.352,23.094
				c39.648,0,78.121-7.77,114.352-23.094c34.982-14.797,66.396-35.975,93.369-62.945c26.971-26.973,48.148-58.387,62.945-93.369
				c15.324-36.23,23.094-74.703,23.094-114.352c0-39.647-7.77-78.121-23.094-114.352c-14.797-34.983-35.975-66.397-62.945-93.368
				c-26.973-26.972-58.387-48.15-93.369-62.947C372.381,8.27,333.908,0.5,294.26,0.5c-39.647,0-78.121,7.77-114.352,23.094
				c-34.983,14.796-66.396,35.975-93.368,62.947c-26.972,26.971-48.15,58.385-62.947,93.368C8.27,216.139,0.5,254.612,0.5,294.26
				c0,39.648,7.77,78.121,23.094,114.352C38.391,443.594,59.569,475.008,86.541,501.98z M63.049,196.597
				c12.637-29.877,30.732-56.714,53.783-79.765c23.051-23.051,49.888-41.146,79.765-53.783
				c30.92-13.078,63.779-19.709,97.663-19.709c33.883,0,66.742,6.631,97.664,19.71c29.875,12.636,56.713,30.732,79.764,53.783
				c23.051,23.051,41.146,49.888,53.783,79.765c13.078,30.92,19.709,63.779,19.709,97.662c0,33.883-6.631,66.742-19.709,97.664
				c-12.637,29.875-30.732,56.713-53.783,79.764s-49.889,41.146-79.764,53.783c-30.922,13.078-63.781,19.709-97.664,19.709
				c-33.883,0-66.742-6.631-97.663-19.709c-29.877-12.637-56.714-30.732-79.765-53.783s-41.146-49.889-53.783-79.766
				c-13.078-30.92-19.709-63.779-19.709-97.662C43.34,260.376,49.971,227.518,63.049,196.597z"/>
			<path d="M294.26,588.52c-39.716,0-78.255-7.783-114.546-23.133c-35.043-14.822-66.51-36.036-93.526-63.053
				c-27.017-27.018-48.231-58.485-63.054-93.528C7.783,372.514,0,333.975,0,294.26s7.783-78.253,23.133-114.546
				c14.822-35.043,36.037-66.51,63.054-93.526c27.017-27.018,58.483-48.232,93.526-63.054C216.006,7.783,254.545,0,294.26,0
				s78.254,7.783,114.546,23.133c35.043,14.822,66.511,36.037,93.528,63.054c27.016,27.016,48.229,58.482,63.053,93.526
				c15.35,36.292,23.133,74.831,23.133,114.546s-7.783,78.255-23.133,114.546c-14.822,35.043-36.036,66.511-63.053,93.528
				c-27.018,27.017-58.485,48.23-93.528,63.052C372.515,580.736,333.976,588.52,294.26,588.52z M294.26,1
				c-39.58,0-77.988,7.757-114.157,23.054c-34.924,14.771-66.284,35.914-93.209,62.84c-26.925,26.925-48.068,58.285-62.84,93.209
				C8.757,216.272,1,254.68,1,294.26s7.757,77.988,23.054,114.157c14.772,34.923,35.914,66.283,62.84,93.21
				c26.925,26.925,58.285,48.066,93.209,62.838c36.167,15.298,74.576,23.055,114.157,23.055s77.989-7.757,114.157-23.055
				c34.923-14.771,66.283-35.913,93.21-62.838c26.925-26.927,48.066-58.287,62.838-93.21
				c15.298-36.168,23.055-74.576,23.055-114.157s-7.757-77.989-23.055-114.157c-14.771-34.925-35.914-66.285-62.838-93.209
				c-26.927-26.926-58.287-48.068-93.21-62.84C372.248,8.757,333.84,1,294.26,1z M294.26,545.68
				c-33.952,0-66.875-6.645-97.857-19.748c-29.936-12.662-56.826-30.794-79.923-53.891c-23.096-23.096-41.227-49.986-53.89-79.925
				C49.484,361.135,42.84,328.211,42.84,294.26c0-33.95,6.645-66.874,19.749-97.857c12.662-29.936,30.793-56.826,53.89-79.923
				c23.097-23.097,49.987-41.228,79.923-53.89c30.983-13.104,63.907-19.749,97.857-19.749c33.951,0,66.875,6.645,97.858,19.75
				c29.937,12.662,56.826,30.793,79.923,53.89c23.098,23.098,41.229,49.988,53.891,79.923
				c13.104,30.982,19.748,63.906,19.748,97.857s-6.645,66.875-19.748,97.858c-12.663,29.937-30.794,56.827-53.891,79.923
				c-23.096,23.097-49.986,41.228-79.923,53.89C361.135,539.035,328.211,545.68,294.26,545.68z M294.26,43.84
				c-33.816,0-66.609,6.618-97.468,19.67c-29.817,12.612-56.601,30.671-79.606,53.676c-23.005,23.005-41.065,49.789-53.676,79.606
				c-13.052,30.859-19.67,63.652-19.67,97.468c0,33.816,6.618,66.609,19.67,97.468c12.613,29.818,30.672,56.603,53.676,79.606
				c23.006,23.006,49.789,41.064,79.606,53.676c30.858,13.052,63.651,19.67,97.468,19.67c33.816,0,66.609-6.618,97.47-19.67
				c29.816-12.612,56.6-30.671,79.604-53.676s41.063-49.788,53.676-79.604c13.052-30.86,19.67-63.653,19.67-97.47
				c0-33.817-6.618-66.609-19.67-97.467c-12.611-29.816-30.67-56.6-53.676-79.606c-23.005-23.005-49.788-41.064-79.604-53.676
				C360.869,50.458,328.076,43.84,294.26,43.84z"/>
		</g>
		<g>
			<path d="M160.87,315.68h111.358v111.359c0,11.83,9.59,21.42,21.42,21.42c11.831,0,21.42-9.59,21.42-21.42V315.68h111.357
				c11.83,0,21.42-9.59,21.42-21.42c0-11.83-9.59-21.42-21.42-21.42H315.068V161.481c0-11.83-9.59-21.42-21.42-21.42
				c-11.83,0-21.42,9.59-21.42,21.42V272.84H160.87c-11.83,0-21.42,9.59-21.42,21.42C139.45,306.09,149.04,315.68,160.87,315.68z"/>
			<path d="M293.648,448.959c-12.087,0-21.92-9.833-21.92-21.92V316.18H160.87c-12.087,0-21.92-9.833-21.92-21.92
				s9.833-21.92,21.92-21.92h110.858V161.481c0-12.087,9.833-21.92,21.92-21.92c12.087,0,21.92,9.833,21.92,21.92V272.34h110.857
				c12.087,0,21.92,9.833,21.92,21.92s-9.833,21.92-21.92,21.92H315.568v110.859C315.568,439.126,305.735,448.959,293.648,448.959z
				 M160.87,273.34c-11.535,0-20.92,9.385-20.92,20.92s9.385,20.92,20.92,20.92h111.858v111.859c0,11.535,9.385,20.92,20.92,20.92
				c11.536,0,20.92-9.385,20.92-20.92V315.18h111.857c11.535,0,20.92-9.385,20.92-20.92s-9.385-20.92-20.92-20.92H314.568V161.481
				c0-11.535-9.385-20.92-20.92-20.92c-11.535,0-20.92,9.385-20.92,20.92V273.34H160.87z"/>
		</g>
	</g>
</g>
<g>
</g>
<g>
</g>
<g>
</g>
<g>
</g>
<g>
</g>
<g>
</g>
<g>
</g>
<g>
</g>
<g>
</g>
<g>
</g>
<g>
</g>
<g>
</g>
<g>
</g>
<g>
</g>
<g>
</g>
</svg>
